<svg width="623" height="132" viewBox="0 0 623 132" fill="none" xmlns="http://www.w3.org/2000/svg">
<path d="M28.3038 74.5001C28.3038 74.5001 14.0974 60.88 13.8026 34.2521C37.0104 21.1935 54.3038 29.0001 54.3038 29.0001" stroke="#E668A8" stroke-width="10" stroke-linecap="round"/>
<path d="M59.3038 113C59.3038 113 42.4024 119.001 19.1946 105.943C19.4894 79.3149 37.0571 64.5002 37.0571 64.5002" stroke="#F3CD42" stroke-width="10" stroke-linecap="round"/>
<path d="M124.202 74.5001C124.202 74.5001 138.408 60.88 138.703 34.2521C115.495 21.1935 98.2021 29.0001 98.2021 29.0001" stroke="#4AD79F" stroke-width="10" stroke-linecap="round"/>
<path d="M93.3161 113.5C93.3161 113.5 110.218 118.501 133.425 105.443C133.131 78.8147 115.563 64 115.563 64" stroke="#D92A2A" stroke-width="10" stroke-linecap="round"/>
<path d="M103.938 91.4979C103.938 91.4979 99.0018 112.431 76.0888 126C53.1758 112.431 48.8038 90.5001 48.8038 90.5001" stroke="#3CA6D2" stroke-width="10" stroke-linecap="round"/>
<path d="M49.2583 41.5021C49.2583 41.5021 53.3044 19.5692 76.2174 6C99.1304 19.5692 104.393 42.4999 104.393 42.4999" stroke="#2A64C1" stroke-width="10" stroke-linecap="round"/>
<path d="M203.909 46.6416C203.909 48.3018 203.689 49.9049 203.25 51.4512C202.827 52.9811 202.225 54.4215 201.443 55.7725C200.662 57.1071 199.718 58.3278 198.611 59.4346C197.505 60.5413 196.284 61.4935 194.949 62.291C193.615 63.0723 192.174 63.6745 190.628 64.0977C189.082 64.5371 187.479 64.7568 185.818 64.7568C184.158 64.7568 182.555 64.5371 181.009 64.0977C179.479 63.6745 178.038 63.0723 176.688 62.291C175.353 61.4935 174.132 60.5413 173.025 59.4346C171.919 58.3278 170.966 57.1071 170.169 55.7725C169.388 54.4215 168.777 52.9811 168.338 51.4512C167.915 49.9049 167.703 48.3018 167.703 46.6416C167.703 44.9814 167.915 43.3783 168.338 41.832C168.777 40.2858 169.388 38.8454 170.169 37.5107C170.966 36.1761 171.919 34.9554 173.025 33.8486C174.132 32.7419 175.353 31.7979 176.688 31.0166C178.038 30.2354 179.479 29.6331 181.009 29.21C182.555 28.7705 184.158 28.5508 185.818 28.5508C187.479 28.5508 189.082 28.7705 190.628 29.21C192.174 29.6331 193.615 30.2354 194.949 31.0166C196.284 31.7979 197.505 32.7419 198.611 33.8486C199.718 34.9554 200.662 36.1761 201.443 37.5107C202.225 38.8454 202.827 40.2858 203.25 41.832C203.689 43.3783 203.909 44.9814 203.909 46.6416ZM196.951 46.6416C196.951 45.1117 196.658 43.6712 196.072 42.3203C195.486 40.9531 194.689 39.7731 193.68 38.7803C192.687 37.7712 191.507 36.9736 190.14 36.3877C188.789 35.8018 187.348 35.5088 185.818 35.5088C184.272 35.5088 182.824 35.8018 181.473 36.3877C180.122 36.9736 178.942 37.7712 177.933 38.7803C176.924 39.7731 176.126 40.9531 175.54 42.3203C174.954 43.6712 174.661 45.1117 174.661 46.6416C174.661 48.1715 174.954 49.612 175.54 50.9629C176.126 52.2975 176.924 53.4694 177.933 54.4785C178.942 55.4876 180.122 56.2852 181.473 56.8711C182.824 57.457 184.272 57.75 185.818 57.75C187.348 57.75 188.789 57.457 190.14 56.8711C191.507 56.2852 192.687 55.4876 193.68 54.4785C194.689 53.4694 195.486 52.2975 196.072 50.9629C196.658 49.612 196.951 48.1715 196.951 46.6416ZM244.026 64H236.531L223.03 40.9531V64H216.023V28.9902H223.519L237.02 52.0615V28.9902H244.026V64ZM285.999 60.4111C284.371 61.8109 282.549 62.8851 280.53 63.6338C278.512 64.3825 276.421 64.7568 274.256 64.7568C272.596 64.7568 270.993 64.5371 269.446 64.0977C267.916 63.6745 266.476 63.0723 265.125 62.291C263.79 61.4935 262.57 60.5413 261.463 59.4346C260.356 58.3278 259.404 57.1071 258.606 55.7725C257.825 54.4215 257.215 52.9811 256.775 51.4512C256.352 49.9049 256.141 48.3018 256.141 46.6416C256.141 44.9814 256.352 43.3783 256.775 41.832C257.215 40.2858 257.825 38.8454 258.606 37.5107C259.404 36.1598 260.356 34.931 261.463 33.8242C262.57 32.7174 263.79 31.7734 265.125 30.9922C266.476 30.1947 267.916 29.5843 269.446 29.1611C270.993 28.7217 272.596 28.502 274.256 28.502C276.421 28.502 278.512 28.8763 280.53 29.625C282.549 30.3574 284.371 31.4316 285.999 32.8477L282.288 38.9512C281.263 37.8444 280.05 36.998 278.65 36.4121C277.251 35.8099 275.786 35.5088 274.256 35.5088C272.71 35.5088 271.261 35.8018 269.91 36.3877C268.559 36.9736 267.379 37.7712 266.37 38.7803C265.361 39.7731 264.563 40.9531 263.978 42.3203C263.392 43.6712 263.099 45.1117 263.099 46.6416C263.099 48.1715 263.392 49.612 263.978 50.9629C264.563 52.2975 265.361 53.4694 266.37 54.4785C267.379 55.4876 268.559 56.2852 269.91 56.8711C271.261 57.457 272.71 57.75 274.256 57.75C275.786 57.75 277.251 57.457 278.65 56.8711C280.05 56.2689 281.263 55.4144 282.288 54.3076L285.999 60.4111ZM330.853 46.6416C330.853 48.3018 330.633 49.9049 330.193 51.4512C329.77 52.9811 329.168 54.4215 328.387 55.7725C327.605 57.1071 326.661 58.3278 325.555 59.4346C324.448 60.5413 323.227 61.4935 321.893 62.291C320.558 63.0723 319.118 63.6745 317.571 64.0977C316.025 64.5371 314.422 64.7568 312.762 64.7568C311.102 64.7568 309.498 64.5371 307.952 64.0977C306.422 63.6745 304.982 63.0723 303.631 62.291C302.296 61.4935 301.076 60.5413 299.969 59.4346C298.862 58.3278 297.91 57.1071 297.112 55.7725C296.331 54.4215 295.721 52.9811 295.281 51.4512C294.858 49.9049 294.646 48.3018 294.646 46.6416C294.646 44.9814 294.858 43.3783 295.281 41.832C295.721 40.2858 296.331 38.8454 297.112 37.5107C297.91 36.1761 298.862 34.9554 299.969 33.8486C301.076 32.7419 302.296 31.7979 303.631 31.0166C304.982 30.2354 306.422 29.6331 307.952 29.21C309.498 28.7705 311.102 28.5508 312.762 28.5508C314.422 28.5508 316.025 28.7705 317.571 29.21C319.118 29.6331 320.558 30.2354 321.893 31.0166C323.227 31.7979 324.448 32.7419 325.555 33.8486C326.661 34.9554 327.605 36.1761 328.387 37.5107C329.168 38.8454 329.77 40.2858 330.193 41.832C330.633 43.3783 330.853 44.9814 330.853 46.6416ZM323.895 46.6416C323.895 45.1117 323.602 43.6712 323.016 42.3203C322.43 40.9531 321.632 39.7731 320.623 38.7803C319.63 37.7712 318.45 36.9736 317.083 36.3877C315.732 35.8018 314.292 35.5088 312.762 35.5088C311.215 35.5088 309.767 35.8018 308.416 36.3877C307.065 36.9736 305.885 37.7712 304.876 38.7803C303.867 39.7731 303.069 40.9531 302.483 42.3203C301.897 43.6712 301.604 45.1117 301.604 46.6416C301.604 48.1715 301.897 49.612 302.483 50.9629C303.069 52.2975 303.867 53.4694 304.876 54.4785C305.885 55.4876 307.065 56.2852 308.416 56.8711C309.767 57.457 311.215 57.75 312.762 57.75C314.292 57.75 315.732 57.457 317.083 56.8711C318.45 56.2852 319.63 55.4876 320.623 54.4785C321.632 53.4694 322.43 52.2975 323.016 50.9629C323.602 49.612 323.895 48.1715 323.895 46.6416ZM349.974 64H342.967V28.9902H367.479V35.9971H349.974V43.0039H360.472V50.0107H349.974V64ZM385.599 64H378.592V28.9902H385.599V64ZM427.474 60.46C425.846 61.8434 424.031 62.9095 422.029 63.6582C420.027 64.3906 417.944 64.7568 415.779 64.7568C414.119 64.7568 412.516 64.5371 410.97 64.0977C409.44 63.6745 408.007 63.0723 406.673 62.291C405.338 61.4935 404.118 60.5495 403.011 59.459C401.904 58.3522 400.96 57.1315 400.179 55.7969C399.397 54.446 398.787 52.9974 398.348 51.4512C397.924 49.9049 397.713 48.3018 397.713 46.6416C397.713 44.9814 397.924 43.3864 398.348 41.8564C398.787 40.3265 399.397 38.8942 400.179 37.5596C400.96 36.2087 401.904 34.988 403.011 33.8975C404.118 32.7907 405.338 31.8467 406.673 31.0654C408.007 30.2842 409.44 29.682 410.97 29.2588C412.516 28.8193 414.119 28.5996 415.779 28.5996C417.944 28.5996 420.027 28.974 422.029 29.7227C424.031 30.4551 425.846 31.513 427.474 32.8965L423.812 39C422.754 37.9258 421.533 37.0876 420.149 36.4854C418.766 35.8669 417.309 35.5576 415.779 35.5576C414.249 35.5576 412.809 35.8506 411.458 36.4365C410.123 37.0225 408.951 37.82 407.942 38.8291C406.933 39.8219 406.136 40.9938 405.55 42.3447C404.964 43.6794 404.671 45.1117 404.671 46.6416C404.671 48.1878 404.964 49.6364 405.55 50.9873C406.136 52.3382 406.933 53.5182 407.942 54.5273C408.951 55.5365 410.123 56.334 411.458 56.9199C412.809 57.5059 414.249 57.7988 415.779 57.7988C416.658 57.7988 417.513 57.693 418.343 57.4814C419.173 57.2699 419.962 56.9769 420.711 56.6025V46.6416H427.474V60.46ZM447.376 64H440.369V28.9902H447.376V43.0039H461.365V28.9902H468.372V64H461.365V50.0107H447.376V64ZM497.088 64H490.105V35.9971H479.583V28.9902H507.586V35.9971H497.088V64ZM542.796 64H518.797V28.9902H542.796V35.9971H525.804V43.0039H537.303V50.0107H525.804V56.9932H542.796V64ZM562.21 35.9971V50.0107H569.217C570.177 50.0107 571.08 49.8317 571.927 49.4736C572.773 49.0993 573.514 48.5947 574.148 47.96C574.783 47.3252 575.28 46.5846 575.638 45.7383C576.012 44.8757 576.199 43.9642 576.199 43.0039C576.199 42.0436 576.012 41.1403 575.638 40.2939C575.28 39.4313 574.783 38.6826 574.148 38.0479C573.514 37.4131 572.773 36.9167 571.927 36.5586C571.08 36.1842 570.177 35.9971 569.217 35.9971H562.21ZM562.21 64H555.203V28.9902H569.217C570.503 28.9902 571.74 29.1611 572.928 29.5029C574.116 29.8285 575.223 30.3005 576.248 30.9189C577.29 31.5212 578.234 32.2536 579.08 33.1162C579.943 33.9626 580.675 34.9066 581.277 35.9482C581.896 36.9899 582.368 38.1048 582.693 39.293C583.035 40.4811 583.206 41.7181 583.206 43.0039C583.206 44.2083 583.051 45.3802 582.742 46.5195C582.449 47.6589 582.018 48.7412 581.448 49.7666C580.895 50.792 580.211 51.736 579.397 52.5986C578.584 53.4613 577.672 54.21 576.663 54.8447L580.545 64H573.099L570.047 56.9443L562.21 56.9932V64ZM593.27 39.4883C593.27 38.0397 593.546 36.6807 594.1 35.4111C594.653 34.1416 595.402 33.0348 596.346 32.0908C597.306 31.1305 598.421 30.3737 599.69 29.8203C600.96 29.2669 602.319 28.9902 603.768 28.9902H619.832V35.9971H603.768C603.279 35.9971 602.824 36.0866 602.4 36.2656C601.977 36.4447 601.603 36.6969 601.277 37.0225C600.968 37.3317 600.724 37.6979 600.545 38.1211C600.366 38.5443 600.276 39 600.276 39.4883C600.276 39.9766 600.366 40.4404 600.545 40.8799C600.724 41.3031 600.968 41.6774 601.277 42.0029C601.603 42.3122 601.977 42.5563 602.4 42.7354C602.824 42.9144 603.279 43.0039 603.768 43.0039H610.774C612.223 43.0039 613.582 43.2806 614.852 43.834C616.137 44.3711 617.252 45.1198 618.196 46.0801C619.157 47.0241 619.905 48.139 620.442 49.4248C620.996 50.6943 621.272 52.0534 621.272 53.502C621.272 54.9505 620.996 56.3096 620.442 57.5791C619.905 58.8486 619.157 59.9635 618.196 60.9238C617.252 61.8678 616.137 62.6165 614.852 63.1699C613.582 63.7233 612.223 64 610.774 64H595.223V56.9932H610.774C611.263 56.9932 611.718 56.9036 612.142 56.7246C612.565 56.5456 612.931 56.3014 613.24 55.9922C613.566 55.6667 613.818 55.2923 613.997 54.8691C614.176 54.446 614.266 53.9902 614.266 53.502C614.266 53.0137 614.176 52.5579 613.997 52.1348C613.818 51.7116 613.566 51.3454 613.24 51.0361C612.931 50.7106 612.565 50.4583 612.142 50.2793C611.718 50.1003 611.263 50.0107 610.774 50.0107H603.768C602.319 50.0107 600.96 49.734 599.69 49.1807C598.421 48.6273 597.306 47.8786 596.346 46.9346C595.402 45.9743 594.653 44.8594 594.1 43.5898C593.546 42.304 593.27 40.9368 593.27 39.4883Z" fill="#202020"/>
<path opacity="0.6" d="M176.816 89.1152L171.143 106H167.164L174.602 86.0938H177.145L176.816 89.1152ZM181.561 106L175.859 89.1152L175.518 86.0938H178.074L185.553 106H181.561ZM181.301 98.6035V101.57H170.623V98.6035H181.301ZM201.576 86.0938V89.0605H191.855V86.0938H201.576ZM204.351 86.0938V106H200.578V86.0938H204.351ZM191.253 86.0938H194.999L194.507 96.0332C194.434 97.5007 194.302 98.7858 194.111 99.8887C193.919 100.992 193.66 101.935 193.331 102.719C193.003 103.493 192.593 104.122 192.101 104.605C191.609 105.089 191.025 105.444 190.351 105.672C189.686 105.891 188.911 106 188.027 106H187.083V103.047L187.617 102.992C188.081 102.956 188.483 102.842 188.82 102.65C189.166 102.459 189.462 102.172 189.708 101.789C189.955 101.397 190.155 100.896 190.31 100.285C190.474 99.6745 190.602 98.9316 190.693 98.0566C190.793 97.1816 190.866 96.1562 190.912 94.9805L191.253 86.0938ZM211.255 93.5449H216.081C217.621 93.5449 218.943 93.8047 220.046 94.3242C221.149 94.8346 221.992 95.5501 222.575 96.4707C223.168 97.3913 223.464 98.4714 223.464 99.7109C223.464 100.641 223.295 101.488 222.958 102.254C222.63 103.02 222.147 103.685 221.509 104.25C220.871 104.806 220.096 105.239 219.184 105.549C218.273 105.85 217.238 106 216.081 106H208.725V86.0938H212.499V103.047H216.081C216.901 103.047 217.58 102.892 218.118 102.582C218.656 102.272 219.057 101.862 219.321 101.352C219.585 100.841 219.718 100.285 219.718 99.6836C219.718 99.0911 219.585 98.5534 219.321 98.0703C219.057 97.5872 218.656 97.2044 218.118 96.9219C217.58 96.6393 216.901 96.498 216.081 96.498H211.255V93.5449ZM237.518 98.6445H232.063L230.696 98.084C229.164 97.6009 227.993 96.8717 227.182 95.8965C226.371 94.9212 225.965 93.6862 225.965 92.1914C225.965 90.8698 226.257 89.7578 226.84 88.8555C227.433 87.944 228.271 87.2559 229.356 86.791C230.45 86.3262 231.744 86.0938 233.239 86.0938H240.047V106H236.274V89.0605H233.239C232.045 89.0605 231.16 89.3568 230.586 89.9492C230.012 90.5417 229.725 91.3665 229.725 92.4238C229.725 93.1621 229.853 93.7865 230.108 94.2969C230.372 94.8073 230.759 95.1901 231.27 95.4453C231.789 95.7005 232.432 95.8281 233.198 95.8281H237.504L237.518 98.6445ZM233.444 97.0586L228.918 106H224.858L229.41 97.0586H233.444ZM257.492 94.3105V97.2637H247.019V94.3105H257.492ZM248.045 86.0938V106H244.285V86.0938H248.045ZM260.281 86.0938V106H256.521V86.0938H260.281ZM276.318 99.4512H280.077C279.977 100.782 279.608 101.962 278.97 102.992C278.332 104.013 277.443 104.815 276.304 105.398C275.165 105.982 273.784 106.273 272.161 106.273C270.913 106.273 269.787 106.055 268.784 105.617C267.791 105.171 266.939 104.537 266.228 103.717C265.526 102.887 264.988 101.894 264.614 100.736C264.241 99.5697 264.054 98.2617 264.054 96.8125V95.2949C264.054 93.8457 264.245 92.5378 264.628 91.3711C265.011 90.2044 265.558 89.2109 266.269 88.3906C266.989 87.5612 267.85 86.9232 268.853 86.4766C269.864 86.0299 270.995 85.8066 272.243 85.8066C273.866 85.8066 275.238 86.1074 276.359 86.709C277.48 87.3014 278.35 88.1172 278.97 89.1562C279.59 90.1953 279.963 91.3893 280.091 92.7383H276.331C276.258 91.8997 276.076 91.1888 275.784 90.6055C275.502 90.0221 275.073 89.5801 274.499 89.2793C273.934 88.9694 273.182 88.8145 272.243 88.8145C271.514 88.8145 270.872 88.9512 270.316 89.2246C269.769 89.498 269.313 89.9082 268.948 90.4551C268.584 90.9928 268.31 91.6673 268.128 92.4785C267.946 93.2806 267.855 94.2103 267.855 95.2676V96.8125C267.855 97.8242 267.937 98.7311 268.101 99.5332C268.265 100.335 268.52 101.014 268.866 101.57C269.213 102.126 269.659 102.55 270.206 102.842C270.753 103.133 271.405 103.279 272.161 103.279C273.082 103.279 273.829 103.133 274.404 102.842C274.987 102.55 275.429 102.122 275.73 101.557C276.04 100.992 276.236 100.29 276.318 99.4512ZM303.893 86.0938V89.0605H294.787V106H291.041V86.0938H303.893ZM293.57 93.5449H298.397C299.937 93.5449 301.259 93.8047 302.361 94.3242C303.464 94.8346 304.307 95.5501 304.891 96.4707C305.483 97.3913 305.779 98.4714 305.779 99.7109C305.779 100.641 305.611 101.488 305.274 102.254C304.945 103.02 304.462 103.685 303.824 104.25C303.186 104.806 302.412 105.239 301.5 105.549C300.589 105.85 299.554 106 298.397 106H291.041V86.0938H294.815V103.047H298.397C299.217 103.047 299.896 102.892 300.434 102.582C300.971 102.272 301.372 101.862 301.637 101.352C301.901 100.841 302.033 100.285 302.033 99.6836C302.033 99.0911 301.901 98.5534 301.637 98.0703C301.372 97.5872 300.971 97.2044 300.434 96.9219C299.896 96.6393 299.217 96.498 298.397 96.498H293.57V93.5449ZM325.343 95.541V96.5664C325.343 98.0703 325.143 99.4238 324.742 100.627C324.341 101.821 323.771 102.837 323.033 103.676C322.294 104.514 321.415 105.157 320.394 105.604C319.373 106.05 318.238 106.273 316.99 106.273C315.759 106.273 314.629 106.05 313.599 105.604C312.578 105.157 311.694 104.514 310.947 103.676C310.199 102.837 309.621 101.821 309.21 100.627C308.8 99.4238 308.595 98.0703 308.595 96.5664V95.541C308.595 94.028 308.8 92.6745 309.21 91.4805C309.621 90.2865 310.195 89.2702 310.933 88.4316C311.671 87.584 312.551 86.9368 313.572 86.4902C314.602 86.0436 315.732 85.8203 316.962 85.8203C318.211 85.8203 319.346 86.0436 320.367 86.4902C321.388 86.9368 322.267 87.584 323.005 88.4316C323.753 89.2702 324.327 90.2865 324.728 91.4805C325.138 92.6745 325.343 94.028 325.343 95.541ZM321.542 96.5664V95.5137C321.542 94.429 321.442 93.4766 321.242 92.6562C321.041 91.8268 320.745 91.1296 320.353 90.5645C319.961 89.9993 319.478 89.5755 318.904 89.293C318.33 89.0013 317.682 88.8555 316.962 88.8555C316.233 88.8555 315.586 89.0013 315.021 89.293C314.465 89.5755 313.991 89.9993 313.599 90.5645C313.207 91.1296 312.906 91.8268 312.697 92.6562C312.496 93.4766 312.396 94.429 312.396 95.5137V96.5664C312.396 97.6419 312.496 98.5944 312.697 99.4238C312.906 100.253 313.207 100.955 313.599 101.529C314 102.094 314.483 102.523 315.048 102.814C315.613 103.106 316.261 103.252 316.99 103.252C317.719 103.252 318.366 103.106 318.931 102.814C319.496 102.523 319.97 102.094 320.353 101.529C320.745 100.955 321.041 100.253 321.242 99.4238C321.442 98.5944 321.542 97.6419 321.542 96.5664ZM336.745 98.7402H331.618V95.7871H336.745C337.584 95.7871 338.263 95.6504 338.782 95.377C339.311 95.0944 339.698 94.7116 339.944 94.2285C340.19 93.7363 340.313 93.1758 340.313 92.5469C340.313 91.9362 340.19 91.3665 339.944 90.8379C339.698 90.3092 339.311 89.8809 338.782 89.5527C338.263 89.2246 337.584 89.0605 336.745 89.0605H332.849V106H329.089V86.0938H336.745C338.295 86.0938 339.616 86.3717 340.71 86.9277C341.813 87.4746 342.651 88.2357 343.226 89.2109C343.809 90.1771 344.101 91.2799 344.101 92.5195C344.101 93.8047 343.809 94.9121 343.226 95.8418C342.651 96.7715 341.813 97.487 340.71 97.9883C339.616 98.4896 338.295 98.7402 336.745 98.7402ZM363.733 95.541V96.5664C363.733 98.0703 363.532 99.4238 363.131 100.627C362.73 101.821 362.161 102.837 361.422 103.676C360.684 104.514 359.804 105.157 358.784 105.604C357.763 106.05 356.628 106.273 355.379 106.273C354.149 106.273 353.019 106.05 351.989 105.604C350.968 105.157 350.084 104.514 349.336 103.676C348.589 102.837 348.01 101.821 347.6 100.627C347.19 99.4238 346.985 98.0703 346.985 96.5664V95.541C346.985 94.028 347.19 92.6745 347.6 91.4805C348.01 90.2865 348.584 89.2702 349.323 88.4316C350.061 87.584 350.941 86.9368 351.961 86.4902C352.991 86.0436 354.121 85.8203 355.352 85.8203C356.601 85.8203 357.735 86.0436 358.756 86.4902C359.777 86.9368 360.657 87.584 361.395 88.4316C362.142 89.2702 362.717 90.2865 363.118 91.4805C363.528 92.6745 363.733 94.028 363.733 95.541ZM359.932 96.5664V95.5137C359.932 94.429 359.832 93.4766 359.631 92.6562C359.431 91.8268 359.135 91.1296 358.743 90.5645C358.351 89.9993 357.868 89.5755 357.293 89.293C356.719 89.0013 356.072 88.8555 355.352 88.8555C354.623 88.8555 353.976 89.0013 353.411 89.293C352.855 89.5755 352.381 89.9993 351.989 90.5645C351.597 91.1296 351.296 91.8268 351.086 92.6562C350.886 93.4766 350.786 94.429 350.786 95.5137V96.5664C350.786 97.6419 350.886 98.5944 351.086 99.4238C351.296 100.253 351.597 100.955 351.989 101.529C352.39 102.094 352.873 102.523 353.438 102.814C354.003 103.106 354.65 103.252 355.379 103.252C356.108 103.252 356.756 103.106 357.321 102.814C357.886 102.523 358.36 102.094 358.743 101.529C359.135 100.955 359.431 100.253 359.631 99.4238C359.832 98.5944 359.932 97.6419 359.932 96.5664ZM375.23 86.0938V106H371.484V86.0938H375.23ZM381.41 86.0938V89.0605H365.373V86.0938H381.41ZM387.179 93.5449H392.005C393.546 93.5449 394.867 93.8047 395.97 94.3242C397.073 94.8346 397.916 95.5501 398.499 96.4707C399.092 97.3913 399.388 98.4714 399.388 99.7109C399.388 100.641 399.219 101.488 398.882 102.254C398.554 103.02 398.071 103.685 397.433 104.25C396.795 104.806 396.02 105.239 395.109 105.549C394.197 105.85 393.163 106 392.005 106H384.65V86.0938H388.423V103.047H392.005C392.825 103.047 393.505 102.892 394.042 102.582C394.58 102.272 394.981 101.862 395.245 101.352C395.51 100.841 395.642 100.285 395.642 99.6836C395.642 99.0911 395.51 98.5534 395.245 98.0703C394.981 97.5872 394.58 97.2044 394.042 96.9219C393.505 96.6393 392.825 96.498 392.005 96.498H387.179V93.5449ZM415.561 86.0938V89.0605H406.456V106H402.71V86.0938H415.561ZM405.239 93.5449H410.065C411.606 93.5449 412.927 93.8047 414.03 94.3242C415.133 94.8346 415.976 95.5501 416.559 96.4707C417.152 97.3913 417.448 98.4714 417.448 99.7109C417.448 100.641 417.279 101.488 416.942 102.254C416.614 103.02 416.131 103.685 415.493 104.25C414.855 104.806 414.08 105.239 413.169 105.549C412.257 105.85 411.223 106 410.065 106H402.71V86.0938H406.483V103.047H410.065C410.885 103.047 411.565 102.892 412.102 102.582C412.64 102.272 413.041 101.862 413.305 101.352C413.57 100.841 413.702 100.285 413.702 99.6836C413.702 99.0911 413.57 98.5534 413.305 98.0703C413.041 97.5872 412.64 97.2044 412.102 96.9219C411.565 96.6393 410.885 96.498 410.065 96.498H405.239V93.5449ZM424.57 99.9844L432.979 86.0938H436.752V106H432.979V92.1094L424.57 106H420.811V86.0938H424.57V99.9844ZM464.655 86.0938V106H460.896V89.0605H452.474V106H448.714V86.0938H464.655ZM476.741 98.7402H471.614V95.7871H476.741C477.579 95.7871 478.258 95.6504 478.778 95.377C479.306 95.0944 479.694 94.7116 479.94 94.2285C480.186 93.7363 480.309 93.1758 480.309 92.5469C480.309 91.9362 480.186 91.3665 479.94 90.8379C479.694 90.3092 479.306 89.8809 478.778 89.5527C478.258 89.2246 477.579 89.0605 476.741 89.0605H472.844V106H469.084V86.0938H476.741C478.29 86.0938 479.612 86.3717 480.706 86.9277C481.808 87.4746 482.647 88.2357 483.221 89.2109C483.804 90.1771 484.096 91.2799 484.096 92.5195C484.096 93.8047 483.804 94.9121 483.221 95.8418C482.647 96.7715 481.808 97.487 480.706 97.9883C479.612 98.4896 478.29 98.7402 476.741 98.7402ZM503.728 95.541V96.5664C503.728 98.0703 503.528 99.4238 503.127 100.627C502.726 101.821 502.156 102.837 501.418 103.676C500.68 104.514 499.8 105.157 498.779 105.604C497.758 106.05 496.624 106.273 495.375 106.273C494.144 106.273 493.014 106.05 491.984 105.604C490.963 105.157 490.079 104.514 489.332 103.676C488.585 102.837 488.006 101.821 487.596 100.627C487.185 99.4238 486.98 98.0703 486.98 96.5664V95.541C486.98 94.028 487.185 92.6745 487.596 91.4805C488.006 90.2865 488.58 89.2702 489.318 88.4316C490.057 87.584 490.936 86.9368 491.957 86.4902C492.987 86.0436 494.117 85.8203 495.348 85.8203C496.596 85.8203 497.731 86.0436 498.752 86.4902C499.773 86.9368 500.652 87.584 501.391 88.4316C502.138 89.2702 502.712 90.2865 503.113 91.4805C503.523 92.6745 503.728 94.028 503.728 95.541ZM499.928 96.5664V95.5137C499.928 94.429 499.827 93.4766 499.627 92.6562C499.426 91.8268 499.13 91.1296 498.738 90.5645C498.346 89.9993 497.863 89.5755 497.289 89.293C496.715 89.0013 496.068 88.8555 495.348 88.8555C494.618 88.8555 493.971 89.0013 493.406 89.293C492.85 89.5755 492.376 89.9993 491.984 90.5645C491.592 91.1296 491.292 91.8268 491.082 92.6562C490.881 93.4766 490.781 94.429 490.781 95.5137V96.5664C490.781 97.6419 490.881 98.5944 491.082 99.4238C491.292 100.253 491.592 100.955 491.984 101.529C492.385 102.094 492.868 102.523 493.434 102.814C493.999 103.106 494.646 103.252 495.375 103.252C496.104 103.252 496.751 103.106 497.316 102.814C497.881 102.523 498.355 102.094 498.738 101.529C499.13 100.955 499.426 100.253 499.627 99.4238C499.827 98.5944 499.928 97.6419 499.928 96.5664ZM515.226 86.0938V106H511.48V86.0938H515.226ZM521.406 86.0938V89.0605H505.369V86.0938H521.406ZM528.145 99.9844L536.554 86.0938H540.327V106H536.554V92.1094L528.145 106H524.386V86.0938H528.145V99.9844ZM559.904 98.7402H554.777V95.7871H559.904C560.743 95.7871 561.422 95.6504 561.941 95.377C562.47 95.0944 562.857 94.7116 563.103 94.2285C563.349 93.7363 563.472 93.1758 563.472 92.5469C563.472 91.9362 563.349 91.3665 563.103 90.8379C562.857 90.3092 562.47 89.8809 561.941 89.5527C561.422 89.2246 560.743 89.0605 559.904 89.0605H556.008V106H552.248V86.0938H559.904C561.453 86.0938 562.775 86.3717 563.869 86.9277C564.972 87.4746 565.81 88.2357 566.384 89.2109C566.968 90.1771 567.259 91.2799 567.259 92.5195C567.259 93.8047 566.968 94.9121 566.384 95.8418C565.81 96.7715 564.972 97.487 563.869 97.9883C562.775 98.4896 561.453 98.7402 559.904 98.7402ZM576.528 89.1152L570.855 106H566.876L574.314 86.0938H576.857L576.528 89.1152ZM581.273 106L575.571 89.1152L575.23 86.0938H577.786L585.265 106H581.273ZM581.013 98.6035V101.57H570.335V98.6035H581.013ZM591.676 86.0938V106H587.917V86.0938H591.676ZM603.53 86.0938L595.669 97.6055H590.733L590.241 94.2969H593.631L598.95 86.0938H603.53ZM599.661 106L593.659 97.0039L596.188 94.2285L604.159 106H599.661ZM612.744 98.9316L617.721 86.0938H621.809L614.945 102.268C614.717 102.787 614.458 103.288 614.166 103.771C613.874 104.255 613.523 104.688 613.113 105.07C612.712 105.444 612.225 105.74 611.65 105.959C611.085 106.178 610.402 106.287 609.6 106.287C609.39 106.287 609.139 106.278 608.848 106.26C608.556 106.251 608.333 106.237 608.178 106.219V103.266C608.287 103.293 608.465 103.311 608.711 103.32C608.966 103.329 609.148 103.334 609.258 103.334C609.786 103.334 610.206 103.252 610.516 103.088C610.835 102.915 611.085 102.682 611.268 102.391C611.459 102.09 611.628 101.748 611.773 101.365L612.744 98.9316ZM609.217 86.0938L613.988 96.5254L615.109 100.586L612.252 100.668L605.143 86.0938H609.217Z" fill="black"/>
</svg>
