<svg width="97" height="60" viewBox="0 0 97 60" fill="none" xmlns="http://www.w3.org/2000/svg">
<g clip-path="url(#clip0_55_509)">
<path d="M30.5713 59.9072H35.7368V1.66893e-06H30.5713V59.9072Z" fill="#444444"/>
<path d="M40.4329 60L45.5045 59.8607C51.4685 59.6285 53.159 58.8854 54.8495 55.774C55.559 54.4317 55.9296 52.9396 55.9296 51.4251V30C55.9296 6.26935 55.9296 6.22292 54.8965 4.17957C53.2528 1.02167 50.8579 0 45.0349 0H40.4329V60ZM50.2004 5.66564C50.6231 6.08359 50.7639 9.19505 50.7639 16.8112V27.3993H45.5984V5.10835H47.6177C48.7448 5.10835 49.8718 5.34055 50.2004 5.66564ZM50.7639 43.1888C50.7639 55.1239 50.8579 54.7988 47.289 54.7988H45.5984V32.5077H50.7639V43.1888Z" fill="#444444"/>
<path d="M60.6256 59.9072H65.5563C71.3324 59.9072 73.3048 59.3034 74.7136 57.0278C75.6058 55.5418 75.6527 54.7524 75.6527 29.9536C75.6527 5.1548 75.6058 4.36533 74.7136 2.87926C73.3048 0.603717 71.3324 1.66893e-06 65.5563 1.66893e-06H60.6256V59.9072ZM70.4872 5.99072C71.1447 7.24459 71.1447 52.6625 70.4872 53.9165C70.1114 54.5665 69.501 54.7988 67.9044 54.7988H65.7913V5.10837H67.9044C69.501 5.10837 70.1114 5.34055 70.4872 5.99072Z" fill="#444444"/>
<path fill-rule="evenodd" clip-rule="evenodd" d="M25.8681 0H0V60H25.8681V0ZM20.2241 54.4186V48.8372H11.7582V43.2557H20.2241V27.4418H11.7582V21.8605H20.2241V5.58139H5.64393V11.1628H14.1098V16.7443H5.64393V32.5582H14.1098V38.1395H5.64393V54.4186H20.2241Z" fill="#9999FF"/>
<path d="M83.7182 46.5117H80.4259V60H83.7182V54.8837H95.9468V51.6279H83.7182V46.5117Z" fill="#9999FF"/>
<path d="M83.7182 32.0931H80.4259V44.6512H95.9468V32.0931H92.6544V41.3954H90.7731V33.9535H87.4808V41.3954H83.7182V32.0931Z" fill="#9999FF"/>
<path fill-rule="evenodd" clip-rule="evenodd" d="M80.4259 22.4728V20.4409L95.9468 14.9428V18.4012L94.0593 19.0697H94.0655V26.205L95.9468 26.8757V30.3366L80.4259 24.8031V22.7591L80.478 22.6164L80.4259 22.4728ZM90.7731 25.0312V20.2339L84.0237 22.6247L90.7731 25.0312Z" fill="#9999FF"/>
<path d="M96.2927 14.8202L96.1134 14.8837H96.3158L96.2927 14.8202Z" fill="#9999FF"/>
<path d="M95.9468 0V3.25582H88.8726L92.6893 5.01733L92.6945 5.01496L92.6973 5.02102L93.5951 5.43537V6.68449L93.5387 6.80394L93.5951 6.92338V8.19221L89.1742 10.2326H95.9468V13.4884H82.12L81.8182 13.6276L81.7525 13.4884H80.4259V10.2326H81.3895L88.7968 6.81379L81.0878 3.25582H80.4259V0H95.9468Z" fill="#9999FF"/>
<path d="M93.1248 6.04652H93.5951V7.44186H93.1248V6.04652Z" fill="#9999FF"/>
</g>
<defs>
<clipPath id="clip0_55_509">
<rect width="96.3158" height="60" fill="white"/>
</clipPath>
</defs>
</svg>
