<svg width="277" height="60" viewBox="0 0 277 60" fill="none" xmlns="http://www.w3.org/2000/svg">
<g clip-path="url(#clip0_55_521)">
<path d="M24.2214 20.7854V38.7459H20.5321V20.7854H24.2214Z" fill="#444444"/>
<path d="M42.3105 20.7854V38.7459H38.6087L31.3904 26.7065V38.7459H27.6886V20.7854H31.3904L38.621 32.8372V20.7854H42.3105Z" fill="#444444"/>
<path d="M53.1934 20.7854V38.7459H49.5041V20.7854H53.1934ZM58.7213 20.7854V23.6842H44.0625V20.7854H58.7213Z" fill="#444444"/>
<path d="M72.8864 35.8593V38.7459H63.3238V35.8593H72.8864ZM64.533 20.7854V38.7459H60.8312V20.7854H64.533ZM71.6402 28.1004V30.9128H63.3238V28.1004H71.6402ZM72.874 20.7854V23.6842H63.3238V20.7854H72.874Z" fill="#444444"/>
<path d="M75.0457 20.7854H81.7458C83.1196 20.7854 84.3 20.991 85.2871 21.4022C86.2825 21.8133 87.0475 22.4218 87.5821 23.2277C88.1169 24.0338 88.3841 25.0247 88.3841 26.2007C88.3841 27.1628 88.2197 27.9894 87.8906 28.6802C87.5698 29.3627 87.1132 29.9342 86.5209 30.3947C85.937 30.8471 85.2502 31.2088 84.4605 31.4803L83.2882 32.097H77.4642L77.4394 29.2105H81.7704C82.4204 29.2105 82.9591 29.0954 83.387 28.8651C83.8147 28.6348 84.1354 28.3142 84.3493 27.903C84.5715 27.4918 84.6825 27.0148 84.6825 26.472C84.6825 25.8963 84.5756 25.3988 84.3618 24.9794C84.1477 24.5601 83.8229 24.2394 83.387 24.0172C82.9509 23.7952 82.4039 23.6842 81.7458 23.6842H78.7475V38.7459H75.0457V20.7854ZM85.0897 38.7459L80.9931 30.7402L84.9046 30.7154L89.0505 38.5732V38.7459H85.0897Z" fill="#444444"/>
<path d="M101.649 32.7878H105.338C105.264 33.9966 104.931 35.0698 104.339 36.0074C103.754 36.9448 102.936 37.6768 101.883 38.2031C100.838 38.7294 99.5798 38.9926 98.1074 38.9926C96.9557 38.9926 95.9234 38.7952 95.0102 38.4005C94.0971 37.9975 93.3157 37.4218 92.6659 36.6736C92.0242 35.9252 91.5347 35.0206 91.1975 33.9597C90.8602 32.8988 90.6917 31.7105 90.6917 30.3947V29.1488C90.6917 27.8331 90.8643 26.6447 91.2098 25.5838C91.5636 24.5147 92.0654 23.6061 92.7152 22.8578C93.3733 22.1094 94.1589 21.5337 95.0719 21.1307C95.985 20.7278 97.0051 20.5263 98.132 20.5263C99.6291 20.5263 100.892 20.7977 101.92 21.3404C102.957 21.8833 103.759 22.6315 104.326 23.5855C104.902 24.5395 105.247 25.6251 105.363 26.8421H101.661C101.62 26.1185 101.476 25.5057 101.229 25.0041C100.982 24.4942 100.608 24.1118 100.106 23.8569C99.6127 23.5937 98.9545 23.4622 98.132 23.4622C97.5151 23.4622 96.9762 23.5773 96.5157 23.8075C96.0549 24.0379 95.6683 24.3873 95.3557 24.8561C95.0432 25.3249 94.8086 25.917 94.6524 26.6324C94.5043 27.3396 94.4304 28.1702 94.4304 29.1242V30.3947C94.4304 31.3239 94.5002 32.1423 94.6401 32.8495C94.7799 33.5485 94.9937 34.1406 95.2817 34.6258C95.5778 35.1028 95.9562 35.4646 96.4169 35.7114C96.8859 35.9498 97.4492 36.0692 98.1074 36.0692C98.8806 36.0692 99.5181 35.9457 100.02 35.6991C100.522 35.4523 100.904 35.0864 101.167 34.6012C101.439 34.116 101.599 33.5116 101.649 32.7878Z" fill="#444444"/>
<path d="M119.824 35.8593V38.7459H110.261V35.8593H119.824ZM111.47 20.7854V38.7459H107.769V20.7854H111.47ZM118.578 28.1004V30.9128H110.261V28.1004H118.578ZM119.812 20.7854V23.6842H110.261V20.7854H119.812Z" fill="#444444"/>
<path d="M128.98 32.3438H124.402V29.4572H128.98C129.687 29.4572 130.263 29.3421 130.707 29.1118C131.151 28.8734 131.476 28.5444 131.682 28.125C131.887 27.7056 131.99 27.2327 131.99 26.7065C131.99 26.1718 131.887 25.6743 131.682 25.2139C131.476 24.7533 131.151 24.3832 130.707 24.1036C130.263 23.8239 129.687 23.6842 128.98 23.6842H125.685V38.7459H121.983V20.7854H128.98C130.386 20.7854 131.591 21.0403 132.595 21.5501C133.607 22.0517 134.38 22.7466 134.915 23.6349C135.449 24.5229 135.717 25.5387 135.717 26.6817C135.717 27.8413 135.449 28.8445 134.915 29.6916C134.38 30.5386 133.607 31.1924 132.595 31.653C131.591 32.1134 130.386 32.3438 128.98 32.3438Z" fill="#444444"/>
<path d="M146.303 20.7854V38.7459H142.614V20.7854H146.303ZM151.831 20.7854V23.6842H137.173V20.7854H151.831Z" fill="#444444"/>
<path d="M169.982 32.7878H173.671C173.597 33.9966 173.264 35.0698 172.672 36.0074C172.087 36.9448 171.269 37.6768 170.216 38.2031C169.172 38.7294 167.913 38.9926 166.441 38.9926C165.29 38.9926 164.257 38.7952 163.344 38.4005C162.431 37.9975 161.649 37.4218 161 36.6736C160.357 35.9252 159.868 35.0206 159.531 33.9597C159.193 32.8988 159.026 31.7105 159.026 30.3947V29.1488C159.026 27.8331 159.198 26.6447 159.544 25.5838C159.898 24.5147 160.398 23.6061 161.049 22.8578C161.706 22.1094 162.492 21.5337 163.405 21.1307C164.318 20.7278 165.339 20.5263 166.465 20.5263C167.962 20.5263 169.225 20.7977 170.254 21.3404C171.29 21.8833 172.092 22.6315 172.659 23.5855C173.236 24.5395 173.581 25.6251 173.697 26.8421H169.995C169.954 26.1185 169.81 25.5057 169.562 25.0041C169.315 24.4942 168.941 24.1118 168.439 23.8569C167.946 23.5937 167.288 23.4622 166.465 23.4622C165.849 23.4622 165.31 23.5773 164.849 23.8075C164.388 24.0379 164.002 24.3873 163.69 24.8561C163.377 25.3249 163.142 25.917 162.985 26.6324C162.838 27.3396 162.764 28.1702 162.764 29.1242V30.3947C162.764 31.3239 162.834 32.1423 162.974 32.8495C163.113 33.5485 163.326 34.1406 163.615 34.6258C163.911 35.1028 164.29 35.4646 164.749 35.7114C165.219 35.9498 165.782 36.0692 166.441 36.0692C167.213 36.0692 167.851 35.9457 168.354 35.6991C168.854 35.4523 169.238 35.0864 169.5 34.6012C169.772 34.116 169.933 33.5116 169.982 32.7878Z" fill="#444444"/>
<path d="M183.407 23.8569L178.52 38.7459H174.584L181.26 20.7854H183.765L183.407 23.8569ZM187.466 38.7459L182.568 23.8569L182.173 20.7854H184.702L191.414 38.7459H187.466ZM187.245 32.0601V34.9588H177.756V32.0601H187.245Z" fill="#444444"/>
<path d="M207.703 20.7854V38.7459H204L196.783 26.7065V38.7459H193.081V20.7854H196.783L204.013 32.8372V20.7854H207.703Z" fill="#444444"/>
<path d="M221.337 32.7878H225.027C224.953 33.9966 224.619 35.0698 224.027 36.0074C223.443 36.9448 222.625 37.6768 221.571 38.2031C220.527 38.7294 219.268 38.9926 217.795 38.9926C216.643 38.9926 215.612 38.7952 214.699 38.4005C213.785 37.9975 213.005 37.4218 212.354 36.6736C211.713 35.9252 211.223 35.0206 210.885 33.9597C210.549 32.8988 210.38 31.7105 210.38 30.3947V29.1488C210.38 27.8331 210.552 26.6447 210.898 25.5838C211.251 24.5147 211.754 23.6061 212.403 22.8578C213.061 22.1094 213.846 21.5337 214.761 21.1307C215.674 20.7278 216.694 20.5263 217.82 20.5263C219.317 20.5263 220.579 20.7977 221.608 21.3404C222.645 21.8833 223.448 22.6315 224.015 23.5855C224.591 24.5395 224.935 25.6251 225.051 26.8421H221.348C221.307 26.1185 221.164 25.5057 220.917 25.0041C220.671 24.4942 220.297 24.1118 219.794 23.8569C219.302 23.5937 218.643 23.4622 217.82 23.4622C217.203 23.4622 216.664 23.5773 216.204 23.8075C215.743 24.0379 215.356 24.3873 215.044 24.8561C214.731 25.3249 214.497 25.917 214.341 26.6324C214.192 27.3396 214.118 28.1702 214.118 29.1242V30.3947C214.118 31.3239 214.189 32.1423 214.328 32.8495C214.469 33.5485 214.682 34.1406 214.969 34.6258C215.266 35.1028 215.644 35.4646 216.105 35.7114C216.574 35.9498 217.138 36.0692 217.795 36.0692C218.569 36.0692 219.207 35.9457 219.708 35.6991C220.21 35.4523 220.592 35.0864 220.856 34.6012C221.127 34.116 221.287 33.5116 221.337 32.7878Z" fill="#444444"/>
<path d="M239.511 35.8593V38.7459H229.95V35.8593H239.511ZM231.158 20.7854V38.7459H227.458V20.7854H231.158ZM238.265 28.1004V30.9128H229.95V28.1004H238.265ZM239.5 20.7854V23.6842H229.95V20.7854H239.5Z" fill="#444444"/>
<path d="M241.672 20.7854H248.372C249.746 20.7854 250.926 20.991 251.913 21.4022C252.908 21.8133 253.674 22.4218 254.208 23.2277C254.743 24.0338 255.01 25.0247 255.01 26.2007C255.01 27.1628 254.846 27.9894 254.516 28.6802C254.195 29.3627 253.739 29.9342 253.146 30.3947C252.562 30.8471 251.877 31.2088 251.087 31.4803L249.913 32.097H244.09L244.065 29.2105H248.396C249.046 29.2105 249.585 29.0954 250.013 28.8651C250.441 28.6348 250.761 28.3142 250.975 27.903C251.197 27.4918 251.308 27.0148 251.308 26.472C251.308 25.8963 251.201 25.3988 250.987 24.9794C250.774 24.5601 250.449 24.2394 250.013 24.0172C249.577 23.7952 249.029 23.6842 248.372 23.6842H245.373V38.7459H241.672V20.7854ZM251.715 38.7459L247.619 30.7402L251.531 30.7154L255.677 38.5732V38.7459H251.715Z" fill="#444444"/>
<path d="M4.44204 0H23.6909L19.2488 4.73684H0L4.44204 0Z" fill="#D81882"/>
<path d="M23.6909 0H44.223L39.4848 4.73684H18.9527L23.6909 0Z" fill="#F9BD3B"/>
<path d="M40.0316 4.5L44.0295 0.236842H62.6288L58.6309 4.5H40.0316Z" fill="white" stroke="#F9BD3B" stroke-width="0.3"/>
<path d="M62.8795 0H82.1283L77.6863 4.73684H58.4375L62.8795 0Z" fill="#B4B7E2"/>
<path d="M82.1283 0H102.66L97.9223 4.73684H77.3902L82.1283 0Z" fill="#033266"/>
<path d="M102.364 0H121.613L117.171 4.73684H97.9222L102.364 0Z" fill="#009DA6"/>
<path d="M121.317 0H140.566L136.124 4.73684H116.875L121.317 0Z" fill="#DA1985"/>
<path d="M140.27 0H159.519L155.076 4.73684H135.828L140.27 0Z" fill="#55A2F0"/>
<path d="M155.327 4.5L159.324 0.236842H177.925L173.927 4.5H155.327Z" fill="white" stroke="#418EDC" stroke-width="0.3"/>
<path d="M178.471 0H199.003L194.265 4.73684H173.733L178.471 0Z" fill="#03356A"/>
<path d="M198.706 0H217.956L213.515 4.73684H194.265L198.706 0Z" fill="#FFBF41"/>
<path d="M217.659 0H236.909L232.467 4.73684H213.218L217.659 0Z" fill="#009BA7"/>
<path d="M236.909 0H257.441L252.703 4.73684H232.17L236.909 0Z" fill="#B3B4E2"/>
<path d="M257.144 0H276.393L271.952 4.73684H252.703L257.144 0Z" fill="#418EDC"/>
<path d="M271.952 60H252.703L257.144 55.2632H276.393L271.952 60Z" fill="#D81882"/>
<path d="M252.703 60H232.17L236.909 55.2632H257.441L252.703 60Z" fill="#F9BD3B"/>
<path d="M236.362 55.5L232.365 59.7632H213.764L217.762 55.5H236.362Z" fill="white" stroke="#F9BD3B" stroke-width="0.3"/>
<path d="M213.515 60H194.265L198.706 55.2632H217.956L213.515 60Z" fill="#B4B7E2"/>
<path d="M194.265 60H173.733L178.471 55.2632H199.003L194.265 60Z" fill="#033266"/>
<path d="M174.03 60H154.78L159.222 55.2632H178.471L174.03 60Z" fill="#009DA6"/>
<path d="M155.076 60H135.828L140.27 55.2632H159.519L155.076 60Z" fill="#DA1985"/>
<path d="M136.124 60H116.875L121.317 55.2632H140.566L136.124 60Z" fill="#55A2F0"/>
<path d="M121.066 55.5L117.068 59.7632H98.469L102.467 55.5H121.066Z" fill="white" stroke="#418EDC" stroke-width="0.3"/>
<path d="M97.9223 60H77.3902L82.1283 55.2632H102.66L97.9223 60Z" fill="#03356A"/>
<path d="M77.6863 60H58.4375L62.8795 55.2632H82.1283L77.6863 60Z" fill="#FFBF41"/>
<path d="M58.7336 60H39.4848L43.9268 55.2632H63.1756L58.7336 60Z" fill="#009BA7"/>
<path d="M39.4848 60H18.9527L23.6909 55.2632H44.223L39.4848 60Z" fill="#B3B4E2"/>
<path d="M19.2488 60H0L4.44204 55.2632H23.6909L19.2488 60Z" fill="#418EDC"/>
</g>
<defs>
<clipPath id="clip0_55_521">
<rect width="276.393" height="60" fill="white"/>
</clipPath>
</defs>
</svg>
